<svg height="329" version="1.1" width="429.21875" xmlns="http://www.w3.org/2000/svg" xmlns:xlink="http://www.w3.org/1999/xlink" style="overflow: hidden; position: relative; left: -0.5px; top: -0.0625px;"><desc style="-webkit-tap-highlight-color: rgba(0, 0, 0, 0);">Created with Raphaël @@VERSION</desc><defs style="-webkit-tap-highlight-color: rgba(0, 0, 0, 0);"><marker id="raphael-marker-endblock55-obj238" markerHeight="5" markerWidth="5" orient="auto" refX="2.5" refY="2.5" style="-webkit-tap-highlight-color: rgba(0, 0, 0, 0);"><use xmlns:xlink="http://www.w3.org/1999/xlink" xlink:href="#raphael-marker-block" transform="rotate(180 2.5 2.5) scale(1,1)" stroke-width="1.0000" fill="#000" stroke="none" style="-webkit-tap-highlight-color: rgba(0, 0, 0, 0);"></use></marker><marker id="raphael-marker-endblock55-obj241" markerHeight="5" markerWidth="5" orient="auto" refX="2.5" refY="2.5" style="-webkit-tap-highlight-color: rgba(0, 0, 0, 0);"><use xmlns:xlink="http://www.w3.org/1999/xlink" xlink:href="#raphael-marker-block" transform="rotate(180 2.5 2.5) scale(1,1)" stroke-width="1.0000" fill="#000" stroke="none" style="-webkit-tap-highlight-color: rgba(0, 0, 0, 0);"></use></marker><marker id="raphael-marker-endblock55-obj244" markerHeight="5" markerWidth="5" orient="auto" refX="2.5" refY="2.5" style="-webkit-tap-highlight-color: rgba(0, 0, 0, 0);"><use xmlns:xlink="http://www.w3.org/1999/xlink" xlink:href="#raphael-marker-block" transform="rotate(180 2.5 2.5) scale(1,1)" stroke-width="1.0000" fill="#000" stroke="none" style="-webkit-tap-highlight-color: rgba(0, 0, 0, 0);"></use></marker><marker id="raphael-marker-endblock55-obj247" markerHeight="5" markerWidth="5" orient="auto" refX="2.5" refY="2.5" style="-webkit-tap-highlight-color: rgba(0, 0, 0, 0);"><use xmlns:xlink="http://www.w3.org/1999/xlink" xlink:href="#raphael-marker-block" transform="rotate(180 2.5 2.5) scale(1,1)" stroke-width="1.0000" fill="#000" stroke="none" style="-webkit-tap-highlight-color: rgba(0, 0, 0, 0);"></use></marker></defs><path fill="#ffffff" stroke="#000000" d="M10,20C29.878481475165877,17.88489583333333,45.850476978012736,22.11510416666667,73.453125,20C72.21979166666667,33.466624645499735,74.68645833333333,41.8971246245045,73.453125,57C38.37532386060177,59.11510416666667,26.034688271976208,54.88489583333333,10,57C8.766666666666666,55.4409370582191,11.233333333333334,40.17009563266796,10,20" stroke-width="2" style="-webkit-tap-highlight-color: rgba(0, 0, 0, 0);"></path><rect x="20.265625" y="30" width="43.453125" height="17" rx="0" ry="0" fill="#ffffff" stroke="none" style="-webkit-tap-highlight-color: rgba(0, 0, 0, 0);"></rect><text x="41.7265625" y="38.5" text-anchor="middle" font-family="sans-serif" font-size="16px" stroke="none" fill="#000000" style="-webkit-tap-highlight-color: rgba(0, 0, 0, 0); text-anchor: middle; font-family: sans-serif; font-size: 16px;"><tspan dy="5.5" style="-webkit-tap-highlight-color: rgba(0, 0, 0, 0);">Client</tspan></text><path fill="#ffffff" stroke="#000000" d="M10,272C49.50653174307125,274.11510416666664,13.806600419898485,269.88489583333336,73.453125,272C72.21979166666667,299.60707326230727,74.68645833333333,295.34844595410993,73.453125,309C37.20385745824962,311.11510416666664,50.57333587304377,306.88489583333336,10,309C8.766666666666666,290.3188774195672,11.233333333333334,305.384529912729,10,272" stroke-width="2" style="-webkit-tap-highlight-color: rgba(0, 0, 0, 0);"></path><rect x="20.265625" y="282" width="43.453125" height="17" rx="0" ry="0" fill="#ffffff" stroke="none" style="-webkit-tap-highlight-color: rgba(0, 0, 0, 0);"></rect><text x="41.7265625" y="290.5" text-anchor="middle" font-family="sans-serif" font-size="16px" stroke="none" fill="#000000" style="-webkit-tap-highlight-color: rgba(0, 0, 0, 0); text-anchor: middle; font-family: sans-serif; font-size: 16px;"><tspan dy="5.5" style="-webkit-tap-highlight-color: rgba(0, 0, 0, 0);">Client</tspan></text><path fill="none" stroke="#000000" d="M41.7265625,57C48.893229166666664,177.62319679420403,34.559895833333336,227.36448554197898,41.7265625,272" stroke-width="2" style="-webkit-tap-highlight-color: rgba(0, 0, 0, 0);"></path><path fill="#ffffff" stroke="#000000" d="M329.421875,20C370.56469552084263,17.6734375,394.5263852223422,22.3265625,399.21875,20C397.98541666666665,46.67065407910431,400.45208333333335,38.64884066138838,399.21875,57C341.212638469265,59.3265625,352.5399305937202,54.6734375,329.421875,57C330.65520833333335,38.53962223861826,328.18854166666665,49.10605300688474,329.421875,20" stroke-width="2" style="-webkit-tap-highlight-color: rgba(0, 0, 0, 0);"></path><rect x="339.75" y="30" width="49.796875" height="17" rx="0" ry="0" fill="#ffffff" stroke="none" style="-webkit-tap-highlight-color: rgba(0, 0, 0, 0);"></rect><text x="364.3203125" y="38.5" text-anchor="middle" font-family="sans-serif" font-size="16px" stroke="none" fill="#000000" style="-webkit-tap-highlight-color: rgba(0, 0, 0, 0); text-anchor: middle; font-family: sans-serif; font-size: 16px;"><tspan dy="5.5" style="-webkit-tap-highlight-color: rgba(0, 0, 0, 0);">Server</tspan></text><path fill="#ffffff" stroke="#000000" d="M329.421875,272C371.3845051230176,269.6734375,334.89563927853106,274.3265625,399.21875,272C400.45208333333335,295.2575320116552,397.98541666666665,286.58242125375585,399.21875,309C388.20641104928194,306.6734375,383.21829822444226,311.3265625,329.421875,309C330.65520833333335,301.42982251109316,328.18854166666665,293.2233632265908,329.421875,272" stroke-width="2" style="-webkit-tap-highlight-color: rgba(0, 0, 0, 0);"></path><rect x="339.75" y="282" width="49.796875" height="17" rx="0" ry="0" fill="#ffffff" stroke="none" style="-webkit-tap-highlight-color: rgba(0, 0, 0, 0);"></rect><text x="364.3203125" y="290.5" text-anchor="middle" font-family="sans-serif" font-size="16px" stroke="none" fill="#000000" style="-webkit-tap-highlight-color: rgba(0, 0, 0, 0); text-anchor: middle; font-family: sans-serif; font-size: 16px;"><tspan dy="5.5" style="-webkit-tap-highlight-color: rgba(0, 0, 0, 0);">Server</tspan></text><path fill="none" stroke="#000000" d="M364.3203125,57C357.1536458333333,187.9754487762354,371.4869791666667,133.8756902611018,364.3203125,272" stroke-width="2" style="-webkit-tap-highlight-color: rgba(0, 0, 0, 0);"></path><path fill="#ffffff" stroke="#000000" d="M31.7265625,77C280.4775054454641,65.58020833333333,281.09447677791707,88.41979166666667,374.3203125,77C373.4203125,91.78726642728493,375.2203125,89.89076970231969,374.3203125,104C326.51486978171215,115.41979166666667,229.13255740685477,92.58020833333333,31.7265625,104C30.8265625,103.00926689937666,32.6265625,95.73698057974805,31.7265625,77" stroke-width="2" style="-webkit-tap-highlight-color: rgba(0, 0, 0, 0);"></path><rect x="143.328125" y="82" width="119.484375" height="17" rx="0" ry="0" fill="#ffffff" stroke="none" style="-webkit-tap-highlight-color: rgba(0, 0, 0, 0);"></rect><text x="203.0234375" y="90.5" text-anchor="middle" font-family="sans-serif" font-size="16px" stroke="none" fill="#000000" style="-webkit-tap-highlight-color: rgba(0, 0, 0, 0); text-anchor: middle; font-family: sans-serif; font-size: 16px;"><tspan dy="5.5" style="-webkit-tap-highlight-color: rgba(0, 0, 0, 0);">TCP Handshake</tspan></text><rect x="163.328125" y="120.5" width="79.46875" height="17" rx="0" ry="0" fill="#ffffff" stroke="none" style="-webkit-tap-highlight-color: rgba(0, 0, 0, 0);"></rect><text x="203.0234375" y="129" text-anchor="middle" font-family="sans-serif" font-size="16px" stroke="none" fill="#000000" style="-webkit-tap-highlight-color: rgba(0, 0, 0, 0); text-anchor: middle; font-family: sans-serif; font-size: 16px;"><tspan dy="5.5" style="-webkit-tap-highlight-color: rgba(0, 0, 0, 0);">ClientHello</tspan></text><path fill="none" stroke="#000000" d="M41.7265625,141C113.06830144836562,130.30971751213073,77.94530363549529,151.5028567283087,359.3251651688676,141.18523508372098" stroke-width="2" marker-end="url(#raphael-marker-endblock55-obj238)" stroke-dasharray="none" style="-webkit-tap-highlight-color: rgba(0, 0, 0, 0);"></path><rect x="51.265625" y="157.5" width="302.59375" height="17" rx="0" ry="0" fill="#ffffff" stroke="none" style="-webkit-tap-highlight-color: rgba(0, 0, 0, 0);"></rect><text x="203.0234375" y="166" text-anchor="middle" font-family="sans-serif" font-size="16px" stroke="none" fill="#000000" style="-webkit-tap-highlight-color: rgba(0, 0, 0, 0); text-anchor: middle; font-family: sans-serif; font-size: 16px;"><tspan dy="5.5" style="-webkit-tap-highlight-color: rgba(0, 0, 0, 0);">ServerHello, ChangeCipherSpec, Finished</tspan></text><path fill="none" stroke="#000000" d="M364.3203125,178C371.65257461942855,188.6868368148804,313.59611295205383,167.5108018298284,46.716885786317874,177.8047980622145" stroke-width="2" marker-end="url(#raphael-marker-endblock55-obj241)" stroke-dasharray="none" style="-webkit-tap-highlight-color: rgba(0, 0, 0, 0);"></path><rect x="97.515625" y="194.5" width="210.109375" height="17" rx="0" ry="0" fill="#ffffff" stroke="none" style="-webkit-tap-highlight-color: rgba(0, 0, 0, 0);"></rect><text x="203.0234375" y="203" text-anchor="middle" font-family="sans-serif" font-size="16px" stroke="none" fill="#000000" style="-webkit-tap-highlight-color: rgba(0, 0, 0, 0); text-anchor: middle; font-family: sans-serif; font-size: 16px;"><tspan dy="5.5" style="-webkit-tap-highlight-color: rgba(0, 0, 0, 0);">ChangeCipherSpec, Finished</tspan></text><path fill="none" stroke="#000000" d="M41.7265625,215C133.02100974047647,225.54441566467287,274.49478302776316,205.06955971033312,359.349036870014,214.4098581417484" stroke-width="2" marker-end="url(#raphael-marker-endblock55-obj244)" stroke-dasharray="none" style="-webkit-tap-highlight-color: rgba(0, 0, 0, 0);"></path><rect x="163.328125" y="231.5" width="79.46875" height="17" rx="0" ry="0" fill="#ffffff" stroke="none" style="-webkit-tap-highlight-color: rgba(0, 0, 0, 0);"></rect><text x="203.0234375" y="240" text-anchor="middle" font-family="sans-serif" font-size="16px" stroke="none" fill="#000000" style="-webkit-tap-highlight-color: rgba(0, 0, 0, 0); text-anchor: middle; font-family: sans-serif; font-size: 16px;"><tspan dy="5.5" style="-webkit-tap-highlight-color: rgba(0, 0, 0, 0);">GET /page</tspan></text><path fill="none" stroke="#000000" d="M41.7265625,252C125.27438718960231,262.6481140136719,191.39121123607032,241.6638424515724,359.32212138538955,251.6941364344675" stroke-width="2" marker-end="url(#raphael-marker-endblock55-obj247)" stroke-dasharray="none" style="-webkit-tap-highlight-color: rgba(0, 0, 0, 0);"></path></svg>
